<svg width="259" height="305" viewBox="0 0 259 305" fill="none" xmlns="http://www.w3.org/2000/svg">
<path d="M21.0149 134.053C28.6554 135.187 44.5022 130.652 45.9171 130.085C48.4639 139.154 51.8597 147.94 55.5384 157.009C57.8022 162.11 60.066 167.212 62.6129 172.313C61.198 170.046 59.7831 168.345 59.5001 168.062C53.5575 161.26 37.9937 151.341 28.6554 155.309C21.8639 158.143 19.883 166.361 23.2788 172.596C26.6745 178.831 35.1639 181.949 41.6724 183.083C48.4639 184.216 62.0469 180.532 65.7256 179.398C66.5746 181.382 67.7065 183.366 68.5554 185.066C73.0831 194.419 77.8937 203.488 82.1384 212.557C83.5533 215.674 84.9682 219.075 86.3831 222.193C84.9682 220.209 84.1193 218.792 83.8363 218.509C77.8937 211.707 62.3299 201.787 52.9916 205.755C46.2001 208.589 44.2192 216.808 47.615 223.043C51.0107 229.278 59.5001 232.396 66.0086 233.529C72.5171 234.379 85.2512 231.262 89.4959 230.128C90.9108 233.529 92.0427 236.93 93.1746 240.048C94.0235 242.315 94.8725 244.582 95.4384 246.849C96.0044 249.117 96.5703 251.384 97.4193 253.651C98.5512 257.902 99.6831 262.437 100.532 266.688C101.098 269.522 101.664 272.639 102.23 275.474C100.815 272.356 97.7023 266.121 97.4193 265.554C92.6086 257.902 78.7427 245.716 68.8384 248.266C61.7639 249.967 58.6511 257.902 60.915 264.421C63.4618 271.222 71.1022 275.474 77.6107 277.457C84.6852 279.725 100.532 277.741 102.513 277.457C103.362 282.275 104.211 286.81 105.06 291.061C106.758 299.847 107.89 308.065 108.738 314.867H115.247C114.115 307.782 112.7 299.28 110.719 289.927C109.87 285.109 108.738 280.008 107.607 274.623C108.738 274.057 115.53 271.506 121.472 268.105C126.566 273.773 140.149 280.292 141.847 281.142C140.149 285.676 138.168 289.927 136.47 293.895C133.075 301.547 129.962 308.632 127.132 314.584H134.207C136.753 309.199 139.3 302.964 142.13 296.162C144.111 291.628 145.809 286.81 147.79 281.709C149.77 281.992 165.334 285.393 172.692 283.692C179.2 282.275 187.407 278.308 190.236 271.789C193.066 265.271 190.519 257.335 183.445 255.068C173.824 251.951 159.109 262.72 153.732 270.089C153.449 270.656 150.619 275.474 148.638 278.874C149.487 276.891 150.053 274.907 150.902 272.639C152.317 268.388 153.732 264.137 155.43 259.603C155.996 257.335 156.845 255.068 157.411 252.801C158.26 250.534 158.543 247.983 159.109 245.716C160.524 240.331 161.373 234.663 162.504 228.711C166.183 230.128 179.2 234.663 186.275 234.096C193.066 233.529 201.556 231.262 205.517 225.027C209.479 219.075 208.064 210.857 201.556 207.456C192.5 202.638 176.37 211.423 169.862 217.942C169.579 218.225 165.334 223.61 163.07 226.444C163.636 223.043 164.202 219.642 164.485 215.958C165.617 205.755 166.749 195.553 167.598 185.35C167.881 182.232 168.164 179.115 168.447 175.997C169.862 176.564 185.143 182.232 192.783 181.665C199.575 181.099 208.064 178.831 212.026 172.596C215.988 166.645 214.573 158.426 208.064 155.025C199.009 150.207 182.879 158.993 176.37 165.511C175.804 166.078 169.862 173.447 168.447 175.431C169.296 168.629 169.862 161.544 170.994 155.025C172.409 145.673 174.39 136.604 176.936 128.101C177.502 128.385 193.632 134.336 201.556 133.77C208.347 133.203 216.836 130.935 220.798 124.7C224.76 118.749 223.345 110.53 216.836 107.129C207.781 102.311 191.651 111.097 185.143 117.615C184.577 118.182 178.351 126.118 177.219 127.535C177.502 126.968 177.502 126.401 177.502 125.834C180.332 116.765 184.294 108.263 188.256 100.327C190.519 95.7929 193.066 91.5417 195.613 87.574C198.443 88.9911 211.743 95.5095 218.817 95.7929C225.609 96.0763 234.381 94.6592 238.909 88.9911C243.436 83.6063 242.87 75.1041 236.928 71.1364C228.439 65.4682 211.46 72.27 204.102 77.9382C203.819 78.2216 200.141 81.9059 197.594 84.4565C198.726 82.7561 199.858 80.7722 200.99 79.0718C205.234 72.5534 209.479 66.8852 213.441 62.0673C215.705 59.2332 217.685 56.6826 219.666 54.4153C223.345 54.4153 237.777 53.8485 244.002 51.0144C250.228 48.1803 257.302 42.7956 258.717 35.7104C260.132 28.9086 255.888 21.54 248.53 20.9731C238.343 19.8395 226.458 33.7265 222.779 42.2287C222.496 43.079 218.817 54.6987 218.817 54.6987H219.1C217.119 56.966 215.139 59.2332 212.875 61.7839C208.913 66.6018 204.385 72.27 200.141 78.505C195.613 84.7399 191.085 91.8251 186.841 99.7606C182.596 107.696 178.634 116.198 175.521 125.267V125.551C175.521 122.433 175.521 114.214 175.239 113.648C174.107 104.579 166.466 87.8574 156.562 85.8736C149.204 84.4565 143.262 90.1247 142.696 97.2099C142.13 104.295 147.224 111.664 152.317 116.198C157.977 121.3 173.824 126.401 175.239 126.684C172.409 135.47 170.145 144.822 168.447 154.458C167.598 159.843 166.749 165.511 165.9 170.896C165.9 168.345 165.9 166.078 165.9 165.795C164.768 156.726 157.128 140.005 147.224 138.021C139.866 136.604 133.924 142.272 133.358 149.357C132.792 156.442 137.885 163.811 142.979 168.345C148.073 172.88 161.656 177.414 165.051 178.548C164.768 180.815 164.485 182.799 164.202 185.066C163.07 195.269 161.938 205.472 160.241 215.391C159.675 218.792 159.109 222.476 158.543 225.877C158.543 223.61 158.543 221.626 158.543 221.343C157.411 212.274 149.77 195.553 139.866 193.569C132.509 192.152 126.566 197.82 126 204.905C125.434 211.99 130.528 219.359 135.621 223.893C140.432 228.144 152.883 232.679 157.128 233.813C156.279 237.213 155.713 240.898 154.864 244.299C154.298 246.566 153.732 248.833 152.883 251.1C152.034 253.368 151.468 255.635 150.619 257.902C149.204 262.153 147.507 266.405 145.809 270.656C144.677 273.49 143.545 276.324 142.413 278.874C142.979 275.474 143.828 268.388 143.828 267.822C143.828 261.87 141.847 251.951 137.602 245.149C137.602 244.299 137.602 243.448 137.319 242.598C136.187 235.513 129.679 230.412 122.604 232.396C112.7 234.946 106.475 252.234 105.909 261.303C105.909 261.87 106.192 267.822 106.475 271.506C105.909 269.239 105.626 267.255 105.06 264.987C103.928 260.736 102.796 256.202 101.664 251.667C101.098 249.4 100.249 247.133 99.6831 244.866C99.1171 242.598 97.9852 240.331 97.4193 238.064C95.4384 232.679 93.1746 227.294 90.9108 222.193C94.5895 221.343 108.172 217.942 113.549 213.691C118.926 209.439 124.585 202.638 124.585 195.553C124.585 188.467 118.926 182.516 111.568 183.083C101.381 184.216 92.6086 200.37 90.9108 209.156C90.9108 209.723 90.0618 216.241 90.0618 219.926C88.6469 216.808 87.232 213.691 85.5342 210.29C81.0065 201.221 76.1959 192.152 71.3852 183.083C69.9703 180.248 68.5554 177.414 67.1405 174.58C68.5554 174.297 84.6852 170.613 90.6278 165.795C96.0044 161.544 101.664 154.742 101.664 147.657C101.664 140.571 96.0044 134.62 88.6469 135.187C78.4597 136.32 69.6873 152.474 67.9895 161.26C67.9895 161.827 67.1405 171.463 66.8575 173.73C64.0278 168.062 60.915 161.827 58.0852 155.875C54.1235 147.373 50.7277 138.587 48.1809 130.085C48.7469 129.802 65.7256 126.118 71.9512 121.3C77.3278 117.048 82.9873 110.247 82.9873 103.161C82.9873 96.0763 77.3278 90.1247 69.9703 90.6915C59.7831 91.8251 51.0107 107.979 49.3128 116.765C49.0299 117.332 48.1809 127.535 48.1809 129.518C47.8979 128.952 47.8979 128.385 47.615 128.101C44.7852 119.032 43.3703 109.68 42.5213 100.894C41.9554 95.7929 41.6724 90.9749 41.6724 86.157C44.7852 85.8736 59.5001 83.8897 65.7256 80.2054C71.6682 76.8045 77.8937 70.5695 78.7427 63.4843C79.5916 56.3991 74.498 49.8808 67.1405 49.8808C56.9533 49.8808 46.4831 64.9014 43.6533 73.687C43.3703 74.2538 42.5213 79.0718 41.6724 82.7561C41.6724 80.4888 41.6724 78.505 41.6724 76.2377C41.6724 68.5857 42.2384 61.5005 42.5213 55.2655C42.8043 51.5812 43.0873 48.4637 43.6533 45.6296C46.4831 43.6458 58.3682 35.1435 62.0469 29.192C65.4426 23.2404 68.5554 15.0216 65.7256 8.21978C63.1788 1.70139 55.5384 -1.98292 49.0299 1.41798C39.9745 6.23592 37.7107 24.374 39.1256 33.4431C39.1256 34.2933 42.8043 46.1965 42.8043 45.913H43.0873C42.8043 48.7471 42.2384 51.8646 41.9554 55.2655C41.3894 61.5005 40.8235 68.5857 40.5405 76.2377C40.2575 83.8897 40.2575 92.392 41.1064 101.178C41.9554 109.963 43.0873 119.316 45.6341 128.668V128.952C43.9362 126.401 39.4086 119.599 38.8426 119.032C32.9001 112.231 17.3362 102.311 7.9979 106.279C1.20641 109.113 -0.774447 117.332 2.6213 123.567C6.01705 129.802 14.2234 132.919 21.0149 134.053Z" fill="rgb(170, 213, 205)"/>
</svg>
